<?xml version="1.0" encoding="utf-8" standalone="no"?>
<!DOCTYPE svg PUBLIC "-//W3C//DTD SVG 1.1//EN"
  "http://www.w3.org/Graphics/SVG/1.1/DTD/svg11.dtd">
<svg xmlns:xlink="http://www.w3.org/1999/xlink" width="460.8pt" height="345.6pt" viewBox="0 0 460.8 345.6" xmlns="http://www.w3.org/2000/svg" version="1.1">
 <metadata>
  <rdf:RDF xmlns:dc="http://purl.org/dc/elements/1.1/" xmlns:cc="http://creativecommons.org/ns#" xmlns:rdf="http://www.w3.org/1999/02/22-rdf-syntax-ns#">
   <cc:Work>
    <dc:type rdf:resource="http://purl.org/dc/dcmitype/StillImage"/>
    <dc:date>2026-03-06T11:01:31.928362</dc:date>
    <dc:format>image/svg+xml</dc:format>
    <dc:creator>
     <cc:Agent>
      <dc:title>Matplotlib v3.10.7, https://matplotlib.org/</dc:title>
     </cc:Agent>
    </dc:creator>
   </cc:Work>
  </rdf:RDF>
 </metadata>
 <defs>
  <style type="text/css">*{stroke-linejoin: round; stroke-linecap: butt}</style>
 </defs>
 <g id="figure_1">
  <g id="patch_1">
   <path d="M 0 345.6 
L 460.8 345.6 
L 460.8 0 
L 0 0 
z
" style="fill: #ffffff"/>
  </g>
  <g id="axes_1">
   <g id="patch_2">
    <path d="M 57.17 303.64 
L 450 303.64 
L 450 27.24 
L 57.17 27.24 
z
" style="fill: #ffffff"/>
   </g>
   <g id="patch_3">
    <path d="M 75.025909 303.64 
L 86.929848 303.64 
L 86.929848 216.153688 
L 75.025909 216.153688 
z
" clip-path="url(#pac590ab7c0)" style="fill: #c8e6c9; opacity: 0.9; stroke: #000000; stroke-linejoin: miter"/>
   </g>
   <g id="patch_4">
    <path d="M 149.42553 303.64 
L 161.32947 303.64 
L 161.32947 104.659484 
L 149.42553 104.659484 
z
" clip-path="url(#pac590ab7c0)" style="fill: #c8e6c9; opacity: 0.9; stroke: #000000; stroke-linejoin: miter"/>
   </g>
   <g id="patch_5">
    <path d="M 223.825152 303.64 
L 235.729091 303.64 
L 235.729091 174.271443 
L 223.825152 174.271443 
z
" clip-path="url(#pac590ab7c0)" style="fill: #c8e6c9; opacity: 0.9; stroke: #000000; stroke-linejoin: miter"/>
   </g>
   <g id="patch_6">
    <path d="M 298.224773 303.64 
L 310.128712 303.64 
L 310.128712 157.138006 
L 298.224773 157.138006 
z
" clip-path="url(#pac590ab7c0)" style="fill: #c8e6c9; opacity: 0.9; stroke: #000000; stroke-linejoin: miter"/>
   </g>
   <g id="patch_7">
    <path d="M 372.624394 303.64 
L 384.528333 303.64 
L 384.528333 129.676909 
L 372.624394 129.676909 
z
" clip-path="url(#pac590ab7c0)" style="fill: #c8e6c9; opacity: 0.9; stroke: #000000; stroke-linejoin: miter"/>
   </g>
   <g id="patch_8">
    <path d="M 86.929848 303.64 
L 98.833788 303.64 
L 98.833788 167.786893 
L 86.929848 167.786893 
z
" clip-path="url(#pac590ab7c0)" style="fill: #81c784; opacity: 0.9; stroke: #000000; stroke-linejoin: miter"/>
   </g>
   <g id="patch_9">
    <path d="M 161.32947 303.64 
L 173.233409 303.64 
L 173.233409 149.178077 
L 161.32947 149.178077 
z
" clip-path="url(#pac590ab7c0)" style="fill: #81c784; opacity: 0.9; stroke: #000000; stroke-linejoin: miter"/>
   </g>
   <g id="patch_10">
    <path d="M 235.729091 303.64 
L 247.63303 303.64 
L 247.63303 138.069891 
L 235.729091 138.069891 
z
" clip-path="url(#pac590ab7c0)" style="fill: #81c784; opacity: 0.9; stroke: #000000; stroke-linejoin: miter"/>
   </g>
   <g id="patch_11">
    <path d="M 310.128712 303.64 
L 322.032652 303.64 
L 322.032652 149.144187 
L 310.128712 149.144187 
z
" clip-path="url(#pac590ab7c0)" style="fill: #81c784; opacity: 0.9; stroke: #000000; stroke-linejoin: miter"/>
   </g>
   <g id="patch_12">
    <path d="M 384.528333 303.64 
L 396.432273 303.64 
L 396.432273 164.770479 
L 384.528333 164.770479 
z
" clip-path="url(#pac590ab7c0)" style="fill: #81c784; opacity: 0.9; stroke: #000000; stroke-linejoin: miter"/>
   </g>
   <g id="patch_13">
    <path d="M 98.833788 303.64 
L 110.737727 303.64 
L 110.737727 99.304036 
L 98.833788 99.304036 
z
" clip-path="url(#pac590ab7c0)" style="fill: #4caf50; opacity: 0.9; stroke: #000000; stroke-linejoin: miter"/>
   </g>
   <g id="patch_14">
    <path d="M 173.233409 303.64 
L 185.137348 303.64 
L 185.137348 128.92434 
L 173.233409 128.92434 
z
" clip-path="url(#pac590ab7c0)" style="fill: #4caf50; opacity: 0.9; stroke: #000000; stroke-linejoin: miter"/>
   </g>
   <g id="patch_15">
    <path d="M 247.63303 303.64 
L 259.53697 303.64 
L 259.53697 150.90475 
L 247.63303 150.90475 
z
" clip-path="url(#pac590ab7c0)" style="fill: #4caf50; opacity: 0.9; stroke: #000000; stroke-linejoin: miter"/>
   </g>
   <g id="patch_16">
    <path d="M 322.032652 303.64 
L 333.936591 303.64 
L 333.936591 115.371842 
L 322.032652 115.371842 
z
" clip-path="url(#pac590ab7c0)" style="fill: #4caf50; opacity: 0.9; stroke: #000000; stroke-linejoin: miter"/>
   </g>
   <g id="patch_17">
    <path d="M 396.432273 303.64 
L 408.336212 303.64 
L 408.336212 160.002966 
L 396.432273 160.002966 
z
" clip-path="url(#pac590ab7c0)" style="fill: #4caf50; opacity: 0.9; stroke: #000000; stroke-linejoin: miter"/>
   </g>
   <g id="patch_18">
    <path d="M 110.737727 303.64 
L 122.641667 303.64 
L 122.641667 191.897196 
L 110.737727 191.897196 
z
" clip-path="url(#pac590ab7c0)" style="fill: #388e3c; opacity: 0.9; stroke: #000000; stroke-linejoin: miter"/>
   </g>
   <g id="patch_19">
    <path d="M 185.137348 303.64 
L 197.041288 303.64 
L 197.041288 135.595351 
L 185.137348 135.595351 
z
" clip-path="url(#pac590ab7c0)" style="fill: #388e3c; opacity: 0.9; stroke: #000000; stroke-linejoin: miter"/>
   </g>
   <g id="patch_20">
    <path d="M 259.53697 303.64 
L 271.440909 303.64 
L 271.440909 159.000494 
L 259.53697 159.000494 
z
" clip-path="url(#pac590ab7c0)" style="fill: #388e3c; opacity: 0.9; stroke: #000000; stroke-linejoin: miter"/>
   </g>
   <g id="patch_21">
    <path d="M 333.936591 303.64 
L 345.84053 303.64 
L 345.84053 157.407748 
L 333.936591 157.407748 
z
" clip-path="url(#pac590ab7c0)" style="fill: #388e3c; opacity: 0.9; stroke: #000000; stroke-linejoin: miter"/>
   </g>
   <g id="patch_22">
    <path d="M 408.336212 303.64 
L 420.240152 303.64 
L 420.240152 171.146934 
L 408.336212 171.146934 
z
" clip-path="url(#pac590ab7c0)" style="fill: #388e3c; opacity: 0.9; stroke: #000000; stroke-linejoin: miter"/>
   </g>
   <g id="patch_23">
    <path d="M 122.641667 303.64 
L 134.545606 303.64 
L 134.545606 200.018497 
L 122.641667 200.018497 
z
" clip-path="url(#pac590ab7c0)" style="fill: #1b5e20; opacity: 0.9; stroke: #000000; stroke-linejoin: miter"/>
   </g>
   <g id="patch_24">
    <path d="M 197.041288 303.64 
L 208.945227 303.64 
L 208.945227 142.598614 
L 197.041288 142.598614 
z
" clip-path="url(#pac590ab7c0)" style="fill: #1b5e20; opacity: 0.9; stroke: #000000; stroke-linejoin: miter"/>
   </g>
   <g id="patch_25">
    <path d="M 271.440909 303.64 
L 283.344848 303.64 
L 283.344848 154.766746 
L 271.440909 154.766746 
z
" clip-path="url(#pac590ab7c0)" style="fill: #1b5e20; opacity: 0.9; stroke: #000000; stroke-linejoin: miter"/>
   </g>
   <g id="patch_26">
    <path d="M 345.84053 303.64 
L 357.74447 303.64 
L 357.74447 156.261867 
L 345.84053 156.261867 
z
" clip-path="url(#pac590ab7c0)" style="fill: #1b5e20; opacity: 0.9; stroke: #000000; stroke-linejoin: miter"/>
   </g>
   <g id="patch_27">
    <path d="M 420.240152 303.64 
L 432.144091 303.64 
L 432.144091 143.790099 
L 420.240152 143.790099 
z
" clip-path="url(#pac590ab7c0)" style="fill: #1b5e20; opacity: 0.9; stroke: #000000; stroke-linejoin: miter"/>
   </g>
   <g id="matplotlib.axis_1">
    <g id="xtick_1">
     <g id="line2d_1">
      <defs>
       <path id="m4151833122" d="M 0 0 
L 0 3.5 
" style="stroke: #000000; stroke-width: 0.8"/>
      </defs>
      <g>
       <use xlink:href="#m4151833122" x="104.785758" y="303.64" style="stroke: #000000; stroke-width: 0.8"/>
      </g>
     </g>
     <g id="text_1">
      <!-- 1% -->
      <g transform="translate(96.853726 318.238437) scale(0.1 -0.1)">
       <defs>
        <path id="DejaVuSans-31" d="M 794 531 
L 1825 531 
L 1825 4091 
L 703 3866 
L 703 4441 
L 1819 4666 
L 2450 4666 
L 2450 531 
L 3481 531 
L 3481 0 
L 794 0 
L 794 531 
z
" transform="scale(0.015625)"/>
        <path id="DejaVuSans-25" d="M 4653 2053 
Q 4381 2053 4226 1822 
Q 4072 1591 4072 1178 
Q 4072 772 4226 539 
Q 4381 306 4653 306 
Q 4919 306 5073 539 
Q 5228 772 5228 1178 
Q 5228 1588 5073 1820 
Q 4919 2053 4653 2053 
z
M 4653 2450 
Q 5147 2450 5437 2106 
Q 5728 1763 5728 1178 
Q 5728 594 5436 251 
Q 5144 -91 4653 -91 
Q 4153 -91 3862 251 
Q 3572 594 3572 1178 
Q 3572 1766 3864 2108 
Q 4156 2450 4653 2450 
z
M 1428 4353 
Q 1159 4353 1004 4120 
Q 850 3888 850 3481 
Q 850 3069 1003 2837 
Q 1156 2606 1428 2606 
Q 1700 2606 1854 2837 
Q 2009 3069 2009 3481 
Q 2009 3884 1853 4118 
Q 1697 4353 1428 4353 
z
M 4250 4750 
L 4750 4750 
L 1831 -91 
L 1331 -91 
L 4250 4750 
z
M 1428 4750 
Q 1922 4750 2215 4408 
Q 2509 4066 2509 3481 
Q 2509 2891 2217 2550 
Q 1925 2209 1428 2209 
Q 931 2209 642 2551 
Q 353 2894 353 3481 
Q 353 4063 643 4406 
Q 934 4750 1428 4750 
z
" transform="scale(0.015625)"/>
       </defs>
       <use xlink:href="#DejaVuSans-31"/>
       <use xlink:href="#DejaVuSans-25" transform="translate(63.623047 0)"/>
      </g>
     </g>
    </g>
    <g id="xtick_2">
     <g id="line2d_2">
      <g>
       <use xlink:href="#m4151833122" x="179.185379" y="303.64" style="stroke: #000000; stroke-width: 0.8"/>
      </g>
     </g>
     <g id="text_2">
      <!-- 5% -->
      <g transform="translate(171.253348 318.238437) scale(0.1 -0.1)">
       <defs>
        <path id="DejaVuSans-35" d="M 691 4666 
L 3169 4666 
L 3169 4134 
L 1269 4134 
L 1269 2991 
Q 1406 3038 1543 3061 
Q 1681 3084 1819 3084 
Q 2600 3084 3056 2656 
Q 3513 2228 3513 1497 
Q 3513 744 3044 326 
Q 2575 -91 1722 -91 
Q 1428 -91 1123 -41 
Q 819 9 494 109 
L 494 744 
Q 775 591 1075 516 
Q 1375 441 1709 441 
Q 2250 441 2565 725 
Q 2881 1009 2881 1497 
Q 2881 1984 2565 2268 
Q 2250 2553 1709 2553 
Q 1456 2553 1204 2497 
Q 953 2441 691 2322 
L 691 4666 
z
" transform="scale(0.015625)"/>
       </defs>
       <use xlink:href="#DejaVuSans-35"/>
       <use xlink:href="#DejaVuSans-25" transform="translate(63.623047 0)"/>
      </g>
     </g>
    </g>
    <g id="xtick_3">
     <g id="line2d_3">
      <g>
       <use xlink:href="#m4151833122" x="253.585" y="303.64" style="stroke: #000000; stroke-width: 0.8"/>
      </g>
     </g>
     <g id="text_3">
      <!-- 10% -->
      <g transform="translate(242.471719 318.238437) scale(0.1 -0.1)">
       <defs>
        <path id="DejaVuSans-30" d="M 2034 4250 
Q 1547 4250 1301 3770 
Q 1056 3291 1056 2328 
Q 1056 1369 1301 889 
Q 1547 409 2034 409 
Q 2525 409 2770 889 
Q 3016 1369 3016 2328 
Q 3016 3291 2770 3770 
Q 2525 4250 2034 4250 
z
M 2034 4750 
Q 2819 4750 3233 4129 
Q 3647 3509 3647 2328 
Q 3647 1150 3233 529 
Q 2819 -91 2034 -91 
Q 1250 -91 836 529 
Q 422 1150 422 2328 
Q 422 3509 836 4129 
Q 1250 4750 2034 4750 
z
" transform="scale(0.015625)"/>
       </defs>
       <use xlink:href="#DejaVuSans-31"/>
       <use xlink:href="#DejaVuSans-30" transform="translate(63.623047 0)"/>
       <use xlink:href="#DejaVuSans-25" transform="translate(127.246094 0)"/>
      </g>
     </g>
    </g>
    <g id="xtick_4">
     <g id="line2d_4">
      <g>
       <use xlink:href="#m4151833122" x="327.984621" y="303.64" style="stroke: #000000; stroke-width: 0.8"/>
      </g>
     </g>
     <g id="text_4">
      <!-- 15% -->
      <g transform="translate(316.87134 318.238437) scale(0.1 -0.1)">
       <use xlink:href="#DejaVuSans-31"/>
       <use xlink:href="#DejaVuSans-35" transform="translate(63.623047 0)"/>
       <use xlink:href="#DejaVuSans-25" transform="translate(127.246094 0)"/>
      </g>
     </g>
    </g>
    <g id="xtick_5">
     <g id="line2d_5">
      <g>
       <use xlink:href="#m4151833122" x="402.384242" y="303.64" style="stroke: #000000; stroke-width: 0.8"/>
      </g>
     </g>
     <g id="text_5">
      <!-- 20% -->
      <g transform="translate(391.270961 318.238437) scale(0.1 -0.1)">
       <defs>
        <path id="DejaVuSans-32" d="M 1228 531 
L 3431 531 
L 3431 0 
L 469 0 
L 469 531 
Q 828 903 1448 1529 
Q 2069 2156 2228 2338 
Q 2531 2678 2651 2914 
Q 2772 3150 2772 3378 
Q 2772 3750 2511 3984 
Q 2250 4219 1831 4219 
Q 1534 4219 1204 4116 
Q 875 4013 500 3803 
L 500 4441 
Q 881 4594 1212 4672 
Q 1544 4750 1819 4750 
Q 2544 4750 2975 4387 
Q 3406 4025 3406 3419 
Q 3406 3131 3298 2873 
Q 3191 2616 2906 2266 
Q 2828 2175 2409 1742 
Q 1991 1309 1228 531 
z
" transform="scale(0.015625)"/>
       </defs>
       <use xlink:href="#DejaVuSans-32"/>
       <use xlink:href="#DejaVuSans-30" transform="translate(63.623047 0)"/>
       <use xlink:href="#DejaVuSans-25" transform="translate(127.246094 0)"/>
      </g>
     </g>
    </g>
    <g id="text_6">
     <!-- Porcentagem de EV's (p%) -->
     <g transform="translate(187.206094 331.916562) scale(0.1 -0.1)">
      <defs>
       <path id="DejaVuSans-50" d="M 1259 4147 
L 1259 2394 
L 2053 2394 
Q 2494 2394 2734 2622 
Q 2975 2850 2975 3272 
Q 2975 3691 2734 3919 
Q 2494 4147 2053 4147 
L 1259 4147 
z
M 628 4666 
L 2053 4666 
Q 2838 4666 3239 4311 
Q 3641 3956 3641 3272 
Q 3641 2581 3239 2228 
Q 2838 1875 2053 1875 
L 1259 1875 
L 1259 0 
L 628 0 
L 628 4666 
z
" transform="scale(0.015625)"/>
       <path id="DejaVuSans-6f" d="M 1959 3097 
Q 1497 3097 1228 2736 
Q 959 2375 959 1747 
Q 959 1119 1226 758 
Q 1494 397 1959 397 
Q 2419 397 2687 759 
Q 2956 1122 2956 1747 
Q 2956 2369 2687 2733 
Q 2419 3097 1959 3097 
z
M 1959 3584 
Q 2709 3584 3137 3096 
Q 3566 2609 3566 1747 
Q 3566 888 3137 398 
Q 2709 -91 1959 -91 
Q 1206 -91 779 398 
Q 353 888 353 1747 
Q 353 2609 779 3096 
Q 1206 3584 1959 3584 
z
" transform="scale(0.015625)"/>
       <path id="DejaVuSans-72" d="M 2631 2963 
Q 2534 3019 2420 3045 
Q 2306 3072 2169 3072 
Q 1681 3072 1420 2755 
Q 1159 2438 1159 1844 
L 1159 0 
L 581 0 
L 581 3500 
L 1159 3500 
L 1159 2956 
Q 1341 3275 1631 3429 
Q 1922 3584 2338 3584 
Q 2397 3584 2469 3576 
Q 2541 3569 2628 3553 
L 2631 2963 
z
" transform="scale(0.015625)"/>
       <path id="DejaVuSans-63" d="M 3122 3366 
L 3122 2828 
Q 2878 2963 2633 3030 
Q 2388 3097 2138 3097 
Q 1578 3097 1268 2742 
Q 959 2388 959 1747 
Q 959 1106 1268 751 
Q 1578 397 2138 397 
Q 2388 397 2633 464 
Q 2878 531 3122 666 
L 3122 134 
Q 2881 22 2623 -34 
Q 2366 -91 2075 -91 
Q 1284 -91 818 406 
Q 353 903 353 1747 
Q 353 2603 823 3093 
Q 1294 3584 2113 3584 
Q 2378 3584 2631 3529 
Q 2884 3475 3122 3366 
z
" transform="scale(0.015625)"/>
       <path id="DejaVuSans-65" d="M 3597 1894 
L 3597 1613 
L 953 1613 
Q 991 1019 1311 708 
Q 1631 397 2203 397 
Q 2534 397 2845 478 
Q 3156 559 3463 722 
L 3463 178 
Q 3153 47 2828 -22 
Q 2503 -91 2169 -91 
Q 1331 -91 842 396 
Q 353 884 353 1716 
Q 353 2575 817 3079 
Q 1281 3584 2069 3584 
Q 2775 3584 3186 3129 
Q 3597 2675 3597 1894 
z
M 3022 2063 
Q 3016 2534 2758 2815 
Q 2500 3097 2075 3097 
Q 1594 3097 1305 2825 
Q 1016 2553 972 2059 
L 3022 2063 
z
" transform="scale(0.015625)"/>
       <path id="DejaVuSans-6e" d="M 3513 2113 
L 3513 0 
L 2938 0 
L 2938 2094 
Q 2938 2591 2744 2837 
Q 2550 3084 2163 3084 
Q 1697 3084 1428 2787 
Q 1159 2491 1159 1978 
L 1159 0 
L 581 0 
L 581 3500 
L 1159 3500 
L 1159 2956 
Q 1366 3272 1645 3428 
Q 1925 3584 2291 3584 
Q 2894 3584 3203 3211 
Q 3513 2838 3513 2113 
z
" transform="scale(0.015625)"/>
       <path id="DejaVuSans-74" d="M 1172 4494 
L 1172 3500 
L 2356 3500 
L 2356 3053 
L 1172 3053 
L 1172 1153 
Q 1172 725 1289 603 
Q 1406 481 1766 481 
L 2356 481 
L 2356 0 
L 1766 0 
Q 1100 0 847 248 
Q 594 497 594 1153 
L 594 3053 
L 172 3053 
L 172 3500 
L 594 3500 
L 594 4494 
L 1172 4494 
z
" transform="scale(0.015625)"/>
       <path id="DejaVuSans-61" d="M 2194 1759 
Q 1497 1759 1228 1600 
Q 959 1441 959 1056 
Q 959 750 1161 570 
Q 1363 391 1709 391 
Q 2188 391 2477 730 
Q 2766 1069 2766 1631 
L 2766 1759 
L 2194 1759 
z
M 3341 1997 
L 3341 0 
L 2766 0 
L 2766 531 
Q 2569 213 2275 61 
Q 1981 -91 1556 -91 
Q 1019 -91 701 211 
Q 384 513 384 1019 
Q 384 1609 779 1909 
Q 1175 2209 1959 2209 
L 2766 2209 
L 2766 2266 
Q 2766 2663 2505 2880 
Q 2244 3097 1772 3097 
Q 1472 3097 1187 3025 
Q 903 2953 641 2809 
L 641 3341 
Q 956 3463 1253 3523 
Q 1550 3584 1831 3584 
Q 2591 3584 2966 3190 
Q 3341 2797 3341 1997 
z
" transform="scale(0.015625)"/>
       <path id="DejaVuSans-67" d="M 2906 1791 
Q 2906 2416 2648 2759 
Q 2391 3103 1925 3103 
Q 1463 3103 1205 2759 
Q 947 2416 947 1791 
Q 947 1169 1205 825 
Q 1463 481 1925 481 
Q 2391 481 2648 825 
Q 2906 1169 2906 1791 
z
M 3481 434 
Q 3481 -459 3084 -895 
Q 2688 -1331 1869 -1331 
Q 1566 -1331 1297 -1286 
Q 1028 -1241 775 -1147 
L 775 -588 
Q 1028 -725 1275 -790 
Q 1522 -856 1778 -856 
Q 2344 -856 2625 -561 
Q 2906 -266 2906 331 
L 2906 616 
Q 2728 306 2450 153 
Q 2172 0 1784 0 
Q 1141 0 747 490 
Q 353 981 353 1791 
Q 353 2603 747 3093 
Q 1141 3584 1784 3584 
Q 2172 3584 2450 3431 
Q 2728 3278 2906 2969 
L 2906 3500 
L 3481 3500 
L 3481 434 
z
" transform="scale(0.015625)"/>
       <path id="DejaVuSans-6d" d="M 3328 2828 
Q 3544 3216 3844 3400 
Q 4144 3584 4550 3584 
Q 5097 3584 5394 3201 
Q 5691 2819 5691 2113 
L 5691 0 
L 5113 0 
L 5113 2094 
Q 5113 2597 4934 2840 
Q 4756 3084 4391 3084 
Q 3944 3084 3684 2787 
Q 3425 2491 3425 1978 
L 3425 0 
L 2847 0 
L 2847 2094 
Q 2847 2600 2669 2842 
Q 2491 3084 2119 3084 
Q 1678 3084 1418 2786 
Q 1159 2488 1159 1978 
L 1159 0 
L 581 0 
L 581 3500 
L 1159 3500 
L 1159 2956 
Q 1356 3278 1631 3431 
Q 1906 3584 2284 3584 
Q 2666 3584 2933 3390 
Q 3200 3197 3328 2828 
z
" transform="scale(0.015625)"/>
       <path id="DejaVuSans-20" transform="scale(0.015625)"/>
       <path id="DejaVuSans-64" d="M 2906 2969 
L 2906 4863 
L 3481 4863 
L 3481 0 
L 2906 0 
L 2906 525 
Q 2725 213 2448 61 
Q 2172 -91 1784 -91 
Q 1150 -91 751 415 
Q 353 922 353 1747 
Q 353 2572 751 3078 
Q 1150 3584 1784 3584 
Q 2172 3584 2448 3432 
Q 2725 3281 2906 2969 
z
M 947 1747 
Q 947 1113 1208 752 
Q 1469 391 1925 391 
Q 2381 391 2643 752 
Q 2906 1113 2906 1747 
Q 2906 2381 2643 2742 
Q 2381 3103 1925 3103 
Q 1469 3103 1208 2742 
Q 947 2381 947 1747 
z
" transform="scale(0.015625)"/>
       <path id="DejaVuSans-45" d="M 628 4666 
L 3578 4666 
L 3578 4134 
L 1259 4134 
L 1259 2753 
L 3481 2753 
L 3481 2222 
L 1259 2222 
L 1259 531 
L 3634 531 
L 3634 0 
L 628 0 
L 628 4666 
z
" transform="scale(0.015625)"/>
       <path id="DejaVuSans-56" d="M 1831 0 
L 50 4666 
L 709 4666 
L 2188 738 
L 3669 4666 
L 4325 4666 
L 2547 0 
L 1831 0 
z
" transform="scale(0.015625)"/>
       <path id="DejaVuSans-27" d="M 1147 4666 
L 1147 2931 
L 616 2931 
L 616 4666 
L 1147 4666 
z
" transform="scale(0.015625)"/>
       <path id="DejaVuSans-73" d="M 2834 3397 
L 2834 2853 
Q 2591 2978 2328 3040 
Q 2066 3103 1784 3103 
Q 1356 3103 1142 2972 
Q 928 2841 928 2578 
Q 928 2378 1081 2264 
Q 1234 2150 1697 2047 
L 1894 2003 
Q 2506 1872 2764 1633 
Q 3022 1394 3022 966 
Q 3022 478 2636 193 
Q 2250 -91 1575 -91 
Q 1294 -91 989 -36 
Q 684 19 347 128 
L 347 722 
Q 666 556 975 473 
Q 1284 391 1588 391 
Q 1994 391 2212 530 
Q 2431 669 2431 922 
Q 2431 1156 2273 1281 
Q 2116 1406 1581 1522 
L 1381 1569 
Q 847 1681 609 1914 
Q 372 2147 372 2553 
Q 372 3047 722 3315 
Q 1072 3584 1716 3584 
Q 2034 3584 2315 3537 
Q 2597 3491 2834 3397 
z
" transform="scale(0.015625)"/>
       <path id="DejaVuSans-28" d="M 1984 4856 
Q 1566 4138 1362 3434 
Q 1159 2731 1159 2009 
Q 1159 1288 1364 580 
Q 1569 -128 1984 -844 
L 1484 -844 
Q 1016 -109 783 600 
Q 550 1309 550 2009 
Q 550 2706 781 3412 
Q 1013 4119 1484 4856 
L 1984 4856 
z
" transform="scale(0.015625)"/>
       <path id="DejaVuSans-70" d="M 1159 525 
L 1159 -1331 
L 581 -1331 
L 581 3500 
L 1159 3500 
L 1159 2969 
Q 1341 3281 1617 3432 
Q 1894 3584 2278 3584 
Q 2916 3584 3314 3078 
Q 3713 2572 3713 1747 
Q 3713 922 3314 415 
Q 2916 -91 2278 -91 
Q 1894 -91 1617 61 
Q 1341 213 1159 525 
z
M 3116 1747 
Q 3116 2381 2855 2742 
Q 2594 3103 2138 3103 
Q 1681 3103 1420 2742 
Q 1159 2381 1159 1747 
Q 1159 1113 1420 752 
Q 1681 391 2138 391 
Q 2594 391 2855 752 
Q 3116 1113 3116 1747 
z
" transform="scale(0.015625)"/>
       <path id="DejaVuSans-29" d="M 513 4856 
L 1013 4856 
Q 1481 4119 1714 3412 
Q 1947 2706 1947 2009 
Q 1947 1309 1714 600 
Q 1481 -109 1013 -844 
L 513 -844 
Q 928 -128 1133 580 
Q 1338 1288 1338 2009 
Q 1338 2731 1133 3434 
Q 928 4138 513 4856 
z
" transform="scale(0.015625)"/>
      </defs>
      <use xlink:href="#DejaVuSans-50"/>
      <use xlink:href="#DejaVuSans-6f" transform="translate(56.677734 0)"/>
      <use xlink:href="#DejaVuSans-72" transform="translate(117.859375 0)"/>
      <use xlink:href="#DejaVuSans-63" transform="translate(156.722656 0)"/>
      <use xlink:href="#DejaVuSans-65" transform="translate(211.703125 0)"/>
      <use xlink:href="#DejaVuSans-6e" transform="translate(273.226562 0)"/>
      <use xlink:href="#DejaVuSans-74" transform="translate(336.605469 0)"/>
      <use xlink:href="#DejaVuSans-61" transform="translate(375.814453 0)"/>
      <use xlink:href="#DejaVuSans-67" transform="translate(437.09375 0)"/>
      <use xlink:href="#DejaVuSans-65" transform="translate(500.570312 0)"/>
      <use xlink:href="#DejaVuSans-6d" transform="translate(562.09375 0)"/>
      <use xlink:href="#DejaVuSans-20" transform="translate(659.505859 0)"/>
      <use xlink:href="#DejaVuSans-64" transform="translate(691.292969 0)"/>
      <use xlink:href="#DejaVuSans-65" transform="translate(754.769531 0)"/>
      <use xlink:href="#DejaVuSans-20" transform="translate(816.292969 0)"/>
      <use xlink:href="#DejaVuSans-45" transform="translate(848.080078 0)"/>
      <use xlink:href="#DejaVuSans-56" transform="translate(911.263672 0)"/>
      <use xlink:href="#DejaVuSans-27" transform="translate(979.671875 0)"/>
      <use xlink:href="#DejaVuSans-73" transform="translate(1007.162109 0)"/>
      <use xlink:href="#DejaVuSans-20" transform="translate(1059.261719 0)"/>
      <use xlink:href="#DejaVuSans-28" transform="translate(1091.048828 0)"/>
      <use xlink:href="#DejaVuSans-70" transform="translate(1130.0625 0)"/>
      <use xlink:href="#DejaVuSans-25" transform="translate(1193.539062 0)"/>
      <use xlink:href="#DejaVuSans-29" transform="translate(1288.558594 0)"/>
     </g>
    </g>
   </g>
   <g id="matplotlib.axis_2">
    <g id="ytick_1">
     <g id="line2d_6">
      <defs>
       <path id="m588c270a6b" d="M 0 0 
L -3.5 0 
" style="stroke: #000000; stroke-width: 0.8"/>
      </defs>
      <g>
       <use xlink:href="#m588c270a6b" x="57.17" y="303.64" style="stroke: #000000; stroke-width: 0.8"/>
      </g>
     </g>
     <g id="text_7">
      <!-- 0 -->
      <g transform="translate(43.8075 307.439219) scale(0.1 -0.1)">
       <use xlink:href="#DejaVuSans-30"/>
      </g>
     </g>
    </g>
    <g id="ytick_2">
     <g id="line2d_7">
      <g>
       <use xlink:href="#m588c270a6b" x="57.17" y="254.282857" style="stroke: #000000; stroke-width: 0.8"/>
      </g>
     </g>
     <g id="text_8">
      <!-- 500 -->
      <g transform="translate(31.0825 258.082076) scale(0.1 -0.1)">
       <use xlink:href="#DejaVuSans-35"/>
       <use xlink:href="#DejaVuSans-30" transform="translate(63.623047 0)"/>
       <use xlink:href="#DejaVuSans-30" transform="translate(127.246094 0)"/>
      </g>
     </g>
    </g>
    <g id="ytick_3">
     <g id="line2d_8">
      <g>
       <use xlink:href="#m588c270a6b" x="57.17" y="204.925714" style="stroke: #000000; stroke-width: 0.8"/>
      </g>
     </g>
     <g id="text_9">
      <!-- 1000 -->
      <g transform="translate(24.72 208.724933) scale(0.1 -0.1)">
       <use xlink:href="#DejaVuSans-31"/>
       <use xlink:href="#DejaVuSans-30" transform="translate(63.623047 0)"/>
       <use xlink:href="#DejaVuSans-30" transform="translate(127.246094 0)"/>
       <use xlink:href="#DejaVuSans-30" transform="translate(190.869141 0)"/>
      </g>
     </g>
    </g>
    <g id="ytick_4">
     <g id="line2d_9">
      <g>
       <use xlink:href="#m588c270a6b" x="57.17" y="155.568571" style="stroke: #000000; stroke-width: 0.8"/>
      </g>
     </g>
     <g id="text_10">
      <!-- 1500 -->
      <g transform="translate(24.72 159.36779) scale(0.1 -0.1)">
       <use xlink:href="#DejaVuSans-31"/>
       <use xlink:href="#DejaVuSans-35" transform="translate(63.623047 0)"/>
       <use xlink:href="#DejaVuSans-30" transform="translate(127.246094 0)"/>
       <use xlink:href="#DejaVuSans-30" transform="translate(190.869141 0)"/>
      </g>
     </g>
    </g>
    <g id="ytick_5">
     <g id="line2d_10">
      <g>
       <use xlink:href="#m588c270a6b" x="57.17" y="106.211429" style="stroke: #000000; stroke-width: 0.8"/>
      </g>
     </g>
     <g id="text_11">
      <!-- 2000 -->
      <g transform="translate(24.72 110.010647) scale(0.1 -0.1)">
       <use xlink:href="#DejaVuSans-32"/>
       <use xlink:href="#DejaVuSans-30" transform="translate(63.623047 0)"/>
       <use xlink:href="#DejaVuSans-30" transform="translate(127.246094 0)"/>
       <use xlink:href="#DejaVuSans-30" transform="translate(190.869141 0)"/>
      </g>
     </g>
    </g>
    <g id="ytick_6">
     <g id="line2d_11">
      <g>
       <use xlink:href="#m588c270a6b" x="57.17" y="56.854286" style="stroke: #000000; stroke-width: 0.8"/>
      </g>
     </g>
     <g id="text_12">
      <!-- 2500 -->
      <g transform="translate(24.72 60.653504) scale(0.1 -0.1)">
       <use xlink:href="#DejaVuSans-32"/>
       <use xlink:href="#DejaVuSans-35" transform="translate(63.623047 0)"/>
       <use xlink:href="#DejaVuSans-30" transform="translate(127.246094 0)"/>
       <use xlink:href="#DejaVuSans-30" transform="translate(190.869141 0)"/>
      </g>
     </g>
    </g>
    <g id="text_13">
     <!-- Distância [m] -->
     <g transform="translate(18.640313 199.04) rotate(-90) scale(0.1 -0.1)">
      <defs>
       <path id="DejaVuSans-44" d="M 1259 4147 
L 1259 519 
L 2022 519 
Q 2988 519 3436 956 
Q 3884 1394 3884 2338 
Q 3884 3275 3436 3711 
Q 2988 4147 2022 4147 
L 1259 4147 
z
M 628 4666 
L 1925 4666 
Q 3281 4666 3915 4102 
Q 4550 3538 4550 2338 
Q 4550 1131 3912 565 
Q 3275 0 1925 0 
L 628 0 
L 628 4666 
z
" transform="scale(0.015625)"/>
       <path id="DejaVuSans-69" d="M 603 3500 
L 1178 3500 
L 1178 0 
L 603 0 
L 603 3500 
z
M 603 4863 
L 1178 4863 
L 1178 4134 
L 603 4134 
L 603 4863 
z
" transform="scale(0.015625)"/>
       <path id="DejaVuSans-e2" d="M 2194 1759 
Q 1497 1759 1228 1600 
Q 959 1441 959 1056 
Q 959 750 1161 570 
Q 1363 391 1709 391 
Q 2188 391 2477 730 
Q 2766 1069 2766 1631 
L 2766 1759 
L 2194 1759 
z
M 3341 1997 
L 3341 0 
L 2766 0 
L 2766 531 
Q 2569 213 2275 61 
Q 1981 -91 1556 -91 
Q 1019 -91 701 211 
Q 384 513 384 1019 
Q 384 1609 779 1909 
Q 1175 2209 1959 2209 
L 2766 2209 
L 2766 2266 
Q 2766 2663 2505 2880 
Q 2244 3097 1772 3097 
Q 1472 3097 1187 3025 
Q 903 2953 641 2809 
L 641 3341 
Q 956 3463 1253 3523 
Q 1550 3584 1831 3584 
Q 2591 3584 2966 3190 
Q 3341 2797 3341 1997 
z
M 1625 5119 
L 2087 5119 
L 2853 3944 
L 2419 3944 
L 1856 4709 
L 1294 3944 
L 859 3944 
L 1625 5119 
z
" transform="scale(0.015625)"/>
       <path id="DejaVuSans-5b" d="M 550 4863 
L 1875 4863 
L 1875 4416 
L 1125 4416 
L 1125 -397 
L 1875 -397 
L 1875 -844 
L 550 -844 
L 550 4863 
z
" transform="scale(0.015625)"/>
       <path id="DejaVuSans-5d" d="M 1947 4863 
L 1947 -844 
L 622 -844 
L 622 -397 
L 1369 -397 
L 1369 4416 
L 622 4416 
L 622 4863 
L 1947 4863 
z
" transform="scale(0.015625)"/>
      </defs>
      <use xlink:href="#DejaVuSans-44"/>
      <use xlink:href="#DejaVuSans-69" transform="translate(77.001953 0)"/>
      <use xlink:href="#DejaVuSans-73" transform="translate(104.785156 0)"/>
      <use xlink:href="#DejaVuSans-74" transform="translate(156.884766 0)"/>
      <use xlink:href="#DejaVuSans-e2" transform="translate(196.09375 0)"/>
      <use xlink:href="#DejaVuSans-6e" transform="translate(257.373047 0)"/>
      <use xlink:href="#DejaVuSans-63" transform="translate(320.751953 0)"/>
      <use xlink:href="#DejaVuSans-69" transform="translate(375.732422 0)"/>
      <use xlink:href="#DejaVuSans-61" transform="translate(403.515625 0)"/>
      <use xlink:href="#DejaVuSans-20" transform="translate(464.794922 0)"/>
      <use xlink:href="#DejaVuSans-5b" transform="translate(496.582031 0)"/>
      <use xlink:href="#DejaVuSans-6d" transform="translate(535.595703 0)"/>
      <use xlink:href="#DejaVuSans-5d" transform="translate(633.007812 0)"/>
     </g>
    </g>
   </g>
   <g id="patch_28">
    <path d="M 57.17 303.64 
L 57.17 27.24 
" style="fill: none; stroke: #000000; stroke-width: 0.8; stroke-linejoin: miter; stroke-linecap: square"/>
   </g>
   <g id="patch_29">
    <path d="M 450 303.64 
L 450 27.24 
" style="fill: none; stroke: #000000; stroke-width: 0.8; stroke-linejoin: miter; stroke-linecap: square"/>
   </g>
   <g id="patch_30">
    <path d="M 57.17 303.64 
L 450 303.64 
" style="fill: none; stroke: #000000; stroke-width: 0.8; stroke-linejoin: miter; stroke-linecap: square"/>
   </g>
   <g id="patch_31">
    <path d="M 57.17 27.24 
L 450 27.24 
" style="fill: none; stroke: #000000; stroke-width: 0.8; stroke-linejoin: miter; stroke-linecap: square"/>
   </g>
   <g id="text_14">
    <!-- Region Greedy - Distância média percorrida -->
    <g transform="translate(122.260938 21.24) scale(0.12 -0.12)">
     <defs>
      <path id="DejaVuSans-52" d="M 2841 2188 
Q 3044 2119 3236 1894 
Q 3428 1669 3622 1275 
L 4263 0 
L 3584 0 
L 2988 1197 
Q 2756 1666 2539 1819 
Q 2322 1972 1947 1972 
L 1259 1972 
L 1259 0 
L 628 0 
L 628 4666 
L 2053 4666 
Q 2853 4666 3247 4331 
Q 3641 3997 3641 3322 
Q 3641 2881 3436 2590 
Q 3231 2300 2841 2188 
z
M 1259 4147 
L 1259 2491 
L 2053 2491 
Q 2509 2491 2742 2702 
Q 2975 2913 2975 3322 
Q 2975 3731 2742 3939 
Q 2509 4147 2053 4147 
L 1259 4147 
z
" transform="scale(0.015625)"/>
      <path id="DejaVuSans-47" d="M 3809 666 
L 3809 1919 
L 2778 1919 
L 2778 2438 
L 4434 2438 
L 4434 434 
Q 4069 175 3628 42 
Q 3188 -91 2688 -91 
Q 1594 -91 976 548 
Q 359 1188 359 2328 
Q 359 3472 976 4111 
Q 1594 4750 2688 4750 
Q 3144 4750 3555 4637 
Q 3966 4525 4313 4306 
L 4313 3634 
Q 3963 3931 3569 4081 
Q 3175 4231 2741 4231 
Q 1884 4231 1454 3753 
Q 1025 3275 1025 2328 
Q 1025 1384 1454 906 
Q 1884 428 2741 428 
Q 3075 428 3337 486 
Q 3600 544 3809 666 
z
" transform="scale(0.015625)"/>
      <path id="DejaVuSans-79" d="M 2059 -325 
Q 1816 -950 1584 -1140 
Q 1353 -1331 966 -1331 
L 506 -1331 
L 506 -850 
L 844 -850 
Q 1081 -850 1212 -737 
Q 1344 -625 1503 -206 
L 1606 56 
L 191 3500 
L 800 3500 
L 1894 763 
L 2988 3500 
L 3597 3500 
L 2059 -325 
z
" transform="scale(0.015625)"/>
      <path id="DejaVuSans-2d" d="M 313 2009 
L 1997 2009 
L 1997 1497 
L 313 1497 
L 313 2009 
z
" transform="scale(0.015625)"/>
      <path id="DejaVuSans-e9" d="M 3597 1894 
L 3597 1613 
L 953 1613 
Q 991 1019 1311 708 
Q 1631 397 2203 397 
Q 2534 397 2845 478 
Q 3156 559 3463 722 
L 3463 178 
Q 3153 47 2828 -22 
Q 2503 -91 2169 -91 
Q 1331 -91 842 396 
Q 353 884 353 1716 
Q 353 2575 817 3079 
Q 1281 3584 2069 3584 
Q 2775 3584 3186 3129 
Q 3597 2675 3597 1894 
z
M 3022 2063 
Q 3016 2534 2758 2815 
Q 2500 3097 2075 3097 
Q 1594 3097 1305 2825 
Q 1016 2553 972 2059 
L 3022 2063 
z
M 2466 5119 
L 3088 5119 
L 2070 3944 
L 1591 3944 
L 2466 5119 
z
" transform="scale(0.015625)"/>
     </defs>
     <use xlink:href="#DejaVuSans-52"/>
     <use xlink:href="#DejaVuSans-65" transform="translate(64.982422 0)"/>
     <use xlink:href="#DejaVuSans-67" transform="translate(126.505859 0)"/>
     <use xlink:href="#DejaVuSans-69" transform="translate(189.982422 0)"/>
     <use xlink:href="#DejaVuSans-6f" transform="translate(217.765625 0)"/>
     <use xlink:href="#DejaVuSans-6e" transform="translate(278.947266 0)"/>
     <use xlink:href="#DejaVuSans-20" transform="translate(342.326172 0)"/>
     <use xlink:href="#DejaVuSans-47" transform="translate(374.113281 0)"/>
     <use xlink:href="#DejaVuSans-72" transform="translate(451.603516 0)"/>
     <use xlink:href="#DejaVuSans-65" transform="translate(490.466797 0)"/>
     <use xlink:href="#DejaVuSans-65" transform="translate(551.990234 0)"/>
     <use xlink:href="#DejaVuSans-64" transform="translate(613.513672 0)"/>
     <use xlink:href="#DejaVuSans-79" transform="translate(676.990234 0)"/>
     <use xlink:href="#DejaVuSans-20" transform="translate(736.169922 0)"/>
     <use xlink:href="#DejaVuSans-2d" transform="translate(767.957031 0)"/>
     <use xlink:href="#DejaVuSans-20" transform="translate(804.041016 0)"/>
     <use xlink:href="#DejaVuSans-44" transform="translate(835.828125 0)"/>
     <use xlink:href="#DejaVuSans-69" transform="translate(912.830078 0)"/>
     <use xlink:href="#DejaVuSans-73" transform="translate(940.613281 0)"/>
     <use xlink:href="#DejaVuSans-74" transform="translate(992.712891 0)"/>
     <use xlink:href="#DejaVuSans-e2" transform="translate(1031.921875 0)"/>
     <use xlink:href="#DejaVuSans-6e" transform="translate(1093.201172 0)"/>
     <use xlink:href="#DejaVuSans-63" transform="translate(1156.580078 0)"/>
     <use xlink:href="#DejaVuSans-69" transform="translate(1211.560547 0)"/>
     <use xlink:href="#DejaVuSans-61" transform="translate(1239.34375 0)"/>
     <use xlink:href="#DejaVuSans-20" transform="translate(1300.623047 0)"/>
     <use xlink:href="#DejaVuSans-6d" transform="translate(1332.410156 0)"/>
     <use xlink:href="#DejaVuSans-e9" transform="translate(1429.822266 0)"/>
     <use xlink:href="#DejaVuSans-64" transform="translate(1491.345703 0)"/>
     <use xlink:href="#DejaVuSans-69" transform="translate(1554.822266 0)"/>
     <use xlink:href="#DejaVuSans-61" transform="translate(1582.605469 0)"/>
     <use xlink:href="#DejaVuSans-20" transform="translate(1643.884766 0)"/>
     <use xlink:href="#DejaVuSans-70" transform="translate(1675.671875 0)"/>
     <use xlink:href="#DejaVuSans-65" transform="translate(1739.148438 0)"/>
     <use xlink:href="#DejaVuSans-72" transform="translate(1800.671875 0)"/>
     <use xlink:href="#DejaVuSans-63" transform="translate(1839.535156 0)"/>
     <use xlink:href="#DejaVuSans-6f" transform="translate(1894.515625 0)"/>
     <use xlink:href="#DejaVuSans-72" transform="translate(1955.697266 0)"/>
     <use xlink:href="#DejaVuSans-72" transform="translate(1995.060547 0)"/>
     <use xlink:href="#DejaVuSans-69" transform="translate(2036.173828 0)"/>
     <use xlink:href="#DejaVuSans-64" transform="translate(2063.957031 0)"/>
     <use xlink:href="#DejaVuSans-61" transform="translate(2127.433594 0)"/>
    </g>
   </g>
   <g id="legend_1">
    <g id="patch_32">
     <path d="M 351.4875 134.525313 
L 443 134.525313 
Q 445 134.525313 445 132.525313 
L 445 34.24 
Q 445 32.24 443 32.24 
L 351.4875 32.24 
Q 349.4875 32.24 349.4875 34.24 
L 349.4875 132.525313 
Q 349.4875 134.525313 351.4875 134.525313 
z
" style="fill: #ffffff; opacity: 0.8; stroke: #cccccc; stroke-linejoin: miter"/>
    </g>
    <g id="text_15">
     <!-- Nº de Estações  -->
     <g transform="translate(353.4875 43.857188) scale(0.1 -0.1)">
      <defs>
       <path id="DejaVuSans-4e" d="M 628 4666 
L 1478 4666 
L 3547 763 
L 3547 4666 
L 4159 4666 
L 4159 0 
L 3309 0 
L 1241 3903 
L 1241 0 
L 628 0 
L 628 4666 
z
" transform="scale(0.015625)"/>
       <path id="DejaVuSans-ba" d="M 434 1850 
L 2584 1850 
L 2584 1466 
L 434 1466 
L 434 1850 
z
M 1509 4750 
Q 2069 4750 2391 4404 
Q 2713 4059 2713 3463 
Q 2713 2866 2391 2523 
Q 2069 2181 1509 2181 
Q 950 2181 625 2525 
Q 300 2869 300 3463 
Q 300 4059 625 4404 
Q 950 4750 1509 4750 
z
M 1509 4391 
Q 1181 4391 984 4139 
Q 788 3888 788 3463 
Q 788 3047 986 2797 
Q 1184 2547 1509 2547 
Q 1838 2547 2033 2797 
Q 2228 3047 2228 3463 
Q 2228 3891 2034 4141 
Q 1841 4391 1509 4391 
z
" transform="scale(0.015625)"/>
       <path id="DejaVuSans-e7" d="M 3122 3366 
L 3122 2828 
Q 2878 2963 2633 3030 
Q 2388 3097 2138 3097 
Q 1578 3097 1268 2742 
Q 959 2388 959 1747 
Q 959 1106 1268 751 
Q 1578 397 2138 397 
Q 2388 397 2633 464 
Q 2878 531 3122 666 
L 3122 134 
Q 2881 22 2623 -34 
Q 2366 -91 2075 -91 
Q 1284 -91 818 406 
Q 353 903 353 1747 
Q 353 2603 823 3093 
Q 1294 3584 2113 3584 
Q 2378 3584 2631 3529 
Q 2884 3475 3122 3366 
z
M 2311 0 
Q 2482 -194 2566 -358 
Q 2651 -522 2651 -672 
Q 2651 -950 2463 -1092 
Q 2276 -1234 1907 -1234 
Q 1764 -1234 1628 -1215 
Q 1492 -1197 1357 -1159 
L 1357 -750 
Q 1464 -803 1579 -826 
Q 1695 -850 1842 -850 
Q 2026 -850 2120 -775 
Q 2214 -700 2214 -556 
Q 2214 -463 2146 -327 
Q 2079 -191 1939 0 
L 2311 0 
z
" transform="scale(0.015625)"/>
       <path id="DejaVuSans-f5" d="M 1959 3097 
Q 1497 3097 1228 2736 
Q 959 2375 959 1747 
Q 959 1119 1226 758 
Q 1494 397 1959 397 
Q 2419 397 2687 759 
Q 2956 1122 2956 1747 
Q 2956 2369 2687 2733 
Q 2419 3097 1959 3097 
z
M 1959 3584 
Q 2709 3584 3137 3096 
Q 3566 2609 3566 1747 
Q 3566 888 3137 398 
Q 2709 -91 1959 -91 
Q 1206 -91 779 398 
Q 353 888 353 1747 
Q 353 2609 779 3096 
Q 1206 3584 1959 3584 
z
M 1948 4281 
L 1769 4453 
Q 1701 4516 1649 4545 
Q 1598 4575 1557 4575 
Q 1438 4575 1382 4461 
Q 1326 4347 1319 4091 
L 929 4091 
Q 935 4513 1094 4742 
Q 1254 4972 1538 4972 
Q 1657 4972 1757 4928 
Q 1857 4884 1973 4781 
L 2151 4609 
Q 2219 4547 2271 4517 
Q 2323 4488 2363 4488 
Q 2482 4488 2538 4602 
Q 2594 4716 2601 4972 
L 2991 4972 
Q 2985 4550 2825 4320 
Q 2666 4091 2382 4091 
Q 2263 4091 2163 4134 
Q 2063 4178 1948 4281 
z
" transform="scale(0.015625)"/>
      </defs>
      <use xlink:href="#DejaVuSans-4e"/>
      <use xlink:href="#DejaVuSans-ba" transform="translate(74.804688 0)"/>
      <use xlink:href="#DejaVuSans-20" transform="translate(121.923828 0)"/>
      <use xlink:href="#DejaVuSans-64" transform="translate(153.710938 0)"/>
      <use xlink:href="#DejaVuSans-65" transform="translate(217.1875 0)"/>
      <use xlink:href="#DejaVuSans-20" transform="translate(278.710938 0)"/>
      <use xlink:href="#DejaVuSans-45" transform="translate(310.498047 0)"/>
      <use xlink:href="#DejaVuSans-73" transform="translate(373.681641 0)"/>
      <use xlink:href="#DejaVuSans-74" transform="translate(425.78125 0)"/>
      <use xlink:href="#DejaVuSans-61" transform="translate(464.990234 0)"/>
      <use xlink:href="#DejaVuSans-e7" transform="translate(526.269531 0)"/>
      <use xlink:href="#DejaVuSans-f5" transform="translate(581.25 0)"/>
      <use xlink:href="#DejaVuSans-65" transform="translate(642.431641 0)"/>
      <use xlink:href="#DejaVuSans-73" transform="translate(703.955078 0)"/>
      <use xlink:href="#DejaVuSans-20" transform="translate(756.054688 0)"/>
     </g>
     <!-- de Carregamento -->
     <g transform="translate(353.4875 55.055) scale(0.1 -0.1)">
      <defs>
       <path id="DejaVuSans-43" d="M 4122 4306 
L 4122 3641 
Q 3803 3938 3442 4084 
Q 3081 4231 2675 4231 
Q 1875 4231 1450 3742 
Q 1025 3253 1025 2328 
Q 1025 1406 1450 917 
Q 1875 428 2675 428 
Q 3081 428 3442 575 
Q 3803 722 4122 1019 
L 4122 359 
Q 3791 134 3420 21 
Q 3050 -91 2638 -91 
Q 1578 -91 968 557 
Q 359 1206 359 2328 
Q 359 3453 968 4101 
Q 1578 4750 2638 4750 
Q 3056 4750 3426 4639 
Q 3797 4528 4122 4306 
z
" transform="scale(0.015625)"/>
      </defs>
      <use xlink:href="#DejaVuSans-64"/>
      <use xlink:href="#DejaVuSans-65" transform="translate(63.476562 0)"/>
      <use xlink:href="#DejaVuSans-20" transform="translate(125 0)"/>
      <use xlink:href="#DejaVuSans-43" transform="translate(156.787109 0)"/>
      <use xlink:href="#DejaVuSans-61" transform="translate(226.611328 0)"/>
      <use xlink:href="#DejaVuSans-72" transform="translate(287.890625 0)"/>
      <use xlink:href="#DejaVuSans-72" transform="translate(327.253906 0)"/>
      <use xlink:href="#DejaVuSans-65" transform="translate(366.117188 0)"/>
      <use xlink:href="#DejaVuSans-67" transform="translate(427.640625 0)"/>
      <use xlink:href="#DejaVuSans-61" transform="translate(491.117188 0)"/>
      <use xlink:href="#DejaVuSans-6d" transform="translate(552.396484 0)"/>
      <use xlink:href="#DejaVuSans-65" transform="translate(649.808594 0)"/>
      <use xlink:href="#DejaVuSans-6e" transform="translate(711.332031 0)"/>
      <use xlink:href="#DejaVuSans-74" transform="translate(774.710938 0)"/>
      <use xlink:href="#DejaVuSans-6f" transform="translate(813.919922 0)"/>
     </g>
    </g>
    <g id="patch_33">
     <path d="M 360.89375 69.733125 
L 380.89375 69.733125 
L 380.89375 62.733125 
L 360.89375 62.733125 
z
" style="fill: #c8e6c9; opacity: 0.9; stroke: #000000; stroke-linejoin: miter"/>
    </g>
    <g id="text_16">
     <!-- $\mathcal{Q}_{CS}$ = 2 -->
     <g transform="translate(388.89375 69.733125) scale(0.1 -0.1)">
      <defs>
       <path id="STIXNonUnicode-Italic-e23d" d="M 4352 58 
L 4506 58 
Q 4410 -243 4250 -435 
Q 4090 -627 3862 -710 
Q 3635 -794 3456 -816 
Q 3277 -838 3021 -838 
Q 2662 -838 1996 -601 
Q 1331 -365 1267 -352 
Q 800 -230 474 -230 
L 474 -77 
Q 800 45 1126 121 
Q 1453 198 1789 246 
Q 2125 294 2189 307 
Q 2861 442 3305 1062 
Q 3750 1683 3750 2458 
Q 3750 2707 3740 2883 
Q 3731 3059 3676 3296 
Q 3622 3533 3526 3677 
Q 3430 3821 3244 3926 
Q 3059 4032 2797 4032 
Q 1997 4032 1469 3366 
Q 941 2701 941 1824 
Q 941 1408 1206 1152 
Q 1472 896 1869 896 
Q 2349 896 2688 1165 
L 2778 1050 
Q 2554 832 2198 704 
Q 1843 576 1453 576 
Q 787 576 467 1011 
Q 275 1280 275 1626 
Q 275 2291 656 2915 
Q 1037 3539 1648 3916 
Q 2259 4294 2912 4294 
Q 3661 4294 4048 3852 
Q 4435 3411 4435 2739 
Q 4435 1971 4022 1315 
Q 3610 659 2874 288 
Q 2426 64 1971 0 
L 1965 -26 
Q 2093 -64 2429 -198 
Q 2765 -333 3037 -416 
Q 3309 -499 3514 -499 
Q 3853 -499 4070 -332 
Q 4288 -166 4352 58 
z
" transform="scale(0.015625)"/>
       <path id="DejaVuSans-Oblique-43" d="M 4447 4306 
L 4319 3641 
Q 4019 3944 3683 4091 
Q 3347 4238 2956 4238 
Q 2422 4238 2017 3981 
Q 1613 3725 1319 3200 
Q 1131 2863 1032 2486 
Q 934 2109 934 1728 
Q 934 1091 1264 756 
Q 1594 422 2222 422 
Q 2656 422 3056 561 
Q 3456 700 3834 978 
L 3688 231 
Q 3316 72 2936 -9 
Q 2556 -91 2175 -91 
Q 1278 -91 773 396 
Q 269 884 269 1753 
Q 269 2309 461 2846 
Q 653 3384 1013 3828 
Q 1394 4300 1883 4525 
Q 2372 4750 3022 4750 
Q 3422 4750 3780 4639 
Q 4138 4528 4447 4306 
z
" transform="scale(0.015625)"/>
       <path id="DejaVuSans-Oblique-53" d="M 3859 4513 
L 3738 3897 
Q 3422 4066 3111 4152 
Q 2800 4238 2509 4238 
Q 1944 4238 1609 3991 
Q 1275 3744 1275 3334 
Q 1275 3109 1398 2989 
Q 1522 2869 2034 2731 
L 2413 2638 
Q 3053 2472 3303 2217 
Q 3553 1963 3553 1503 
Q 3553 797 2998 353 
Q 2444 -91 1538 -91 
Q 1166 -91 791 -17 
Q 416 56 38 206 
L 166 856 
Q 513 641 861 531 
Q 1209 422 1556 422 
Q 2147 422 2503 684 
Q 2859 947 2859 1369 
Q 2859 1650 2717 1795 
Q 2575 1941 2106 2059 
L 1728 2156 
Q 1081 2325 845 2545 
Q 609 2766 609 3163 
Q 609 3859 1145 4304 
Q 1681 4750 2541 4750 
Q 2875 4750 3203 4690 
Q 3531 4631 3859 4513 
z
" transform="scale(0.015625)"/>
       <path id="DejaVuSans-3d" d="M 678 2906 
L 4684 2906 
L 4684 2381 
L 678 2381 
L 678 2906 
z
M 678 1631 
L 4684 1631 
L 4684 1100 
L 678 1100 
L 678 1631 
z
" transform="scale(0.015625)"/>
      </defs>
      <use xlink:href="#STIXNonUnicode-Italic-e23d" transform="translate(0 0.78125)"/>
      <use xlink:href="#DejaVuSans-Oblique-43" transform="translate(75.357025 -15.625) scale(0.7)"/>
      <use xlink:href="#DejaVuSans-Oblique-53" transform="translate(124.233978 -15.625) scale(0.7)"/>
      <use xlink:href="#DejaVuSans-20" transform="translate(171.401947 0.78125)"/>
      <use xlink:href="#DejaVuSans-3d" transform="translate(203.189056 0.78125)"/>
      <use xlink:href="#DejaVuSans-20" transform="translate(286.978119 0.78125)"/>
      <use xlink:href="#DejaVuSans-32" transform="translate(318.765228 0.78125)"/>
     </g>
    </g>
    <g id="patch_34">
     <path d="M 360.89375 84.41125 
L 380.89375 84.41125 
L 380.89375 77.41125 
L 360.89375 77.41125 
z
" style="fill: #81c784; opacity: 0.9; stroke: #000000; stroke-linejoin: miter"/>
    </g>
    <g id="text_17">
     <!-- $\mathcal{Q}_{CS}$ = 5 -->
     <g transform="translate(388.89375 84.41125) scale(0.1 -0.1)">
      <use xlink:href="#STIXNonUnicode-Italic-e23d" transform="translate(0 0.09375)"/>
      <use xlink:href="#DejaVuSans-Oblique-43" transform="translate(75.357025 -16.3125) scale(0.7)"/>
      <use xlink:href="#DejaVuSans-Oblique-53" transform="translate(124.233978 -16.3125) scale(0.7)"/>
      <use xlink:href="#DejaVuSans-20" transform="translate(171.401947 0.09375)"/>
      <use xlink:href="#DejaVuSans-3d" transform="translate(203.189056 0.09375)"/>
      <use xlink:href="#DejaVuSans-20" transform="translate(286.978119 0.09375)"/>
      <use xlink:href="#DejaVuSans-35" transform="translate(318.765228 0.09375)"/>
     </g>
    </g>
    <g id="patch_35">
     <path d="M 360.89375 99.089375 
L 380.89375 99.089375 
L 380.89375 92.089375 
L 360.89375 92.089375 
z
" style="fill: #4caf50; opacity: 0.9; stroke: #000000; stroke-linejoin: miter"/>
    </g>
    <g id="text_18">
     <!-- $\mathcal{Q}_{CS}$ = 10 -->
     <g transform="translate(388.89375 99.089375) scale(0.1 -0.1)">
      <use xlink:href="#STIXNonUnicode-Italic-e23d" transform="translate(0 0.78125)"/>
      <use xlink:href="#DejaVuSans-Oblique-43" transform="translate(75.357025 -15.625) scale(0.7)"/>
      <use xlink:href="#DejaVuSans-Oblique-53" transform="translate(124.233978 -15.625) scale(0.7)"/>
      <use xlink:href="#DejaVuSans-20" transform="translate(171.401947 0.78125)"/>
      <use xlink:href="#DejaVuSans-3d" transform="translate(203.189056 0.78125)"/>
      <use xlink:href="#DejaVuSans-20" transform="translate(286.978119 0.78125)"/>
      <use xlink:href="#DejaVuSans-31" transform="translate(318.765228 0.78125)"/>
      <use xlink:href="#DejaVuSans-30" transform="translate(382.388275 0.78125)"/>
     </g>
    </g>
    <g id="patch_36">
     <path d="M 360.89375 113.7675 
L 380.89375 113.7675 
L 380.89375 106.7675 
L 360.89375 106.7675 
z
" style="fill: #388e3c; opacity: 0.9; stroke: #000000; stroke-linejoin: miter"/>
    </g>
    <g id="text_19">
     <!-- $\mathcal{Q}_{CS}$ = 15 -->
     <g transform="translate(388.89375 113.7675) scale(0.1 -0.1)">
      <use xlink:href="#STIXNonUnicode-Italic-e23d" transform="translate(0 0.09375)"/>
      <use xlink:href="#DejaVuSans-Oblique-43" transform="translate(75.357025 -16.3125) scale(0.7)"/>
      <use xlink:href="#DejaVuSans-Oblique-53" transform="translate(124.233978 -16.3125) scale(0.7)"/>
      <use xlink:href="#DejaVuSans-20" transform="translate(171.401947 0.09375)"/>
      <use xlink:href="#DejaVuSans-3d" transform="translate(203.189056 0.09375)"/>
      <use xlink:href="#DejaVuSans-20" transform="translate(286.978119 0.09375)"/>
      <use xlink:href="#DejaVuSans-31" transform="translate(318.765228 0.09375)"/>
      <use xlink:href="#DejaVuSans-35" transform="translate(382.388275 0.09375)"/>
     </g>
    </g>
    <g id="patch_37">
     <path d="M 360.89375 128.445625 
L 380.89375 128.445625 
L 380.89375 121.445625 
L 360.89375 121.445625 
z
" style="fill: #1b5e20; opacity: 0.9; stroke: #000000; stroke-linejoin: miter"/>
    </g>
    <g id="text_20">
     <!-- $\mathcal{Q}_{CS}$ = 20 -->
     <g transform="translate(388.89375 128.445625) scale(0.1 -0.1)">
      <use xlink:href="#STIXNonUnicode-Italic-e23d" transform="translate(0 0.78125)"/>
      <use xlink:href="#DejaVuSans-Oblique-43" transform="translate(75.357025 -15.625) scale(0.7)"/>
      <use xlink:href="#DejaVuSans-Oblique-53" transform="translate(124.233978 -15.625) scale(0.7)"/>
      <use xlink:href="#DejaVuSans-20" transform="translate(171.401947 0.78125)"/>
      <use xlink:href="#DejaVuSans-3d" transform="translate(203.189056 0.78125)"/>
      <use xlink:href="#DejaVuSans-20" transform="translate(286.978119 0.78125)"/>
      <use xlink:href="#DejaVuSans-32" transform="translate(318.765228 0.78125)"/>
      <use xlink:href="#DejaVuSans-30" transform="translate(382.388275 0.78125)"/>
     </g>
    </g>
   </g>
  </g>
 </g>
 <defs>
  <clipPath id="pac590ab7c0">
   <rect x="57.17" y="27.24" width="392.83" height="276.4"/>
  </clipPath>
 </defs>
</svg>
